<svg width="194" height="32" viewBox="0 0 194 32" fill="none" xmlns="http://www.w3.org/2000/svg">
<path opacity="0.9" fill-rule="evenodd" clip-rule="evenodd" d="M16 0C7.16344 0 0 7.16344 0 16C0 24.8366 7.16344 32 16 32H177.524C186.36 32 193.524 24.8366 193.524 16C193.524 7.16344 186.36 0 177.524 0H16ZM31.9728 21.0952V11.4156H35.5041V9.72024H31.9728H29.8322H26.34V11.4156H29.8322V21.0952H31.9728ZM38.965 21.0952V12.6421H36.8947V21.0952H38.965ZM37.0666 9.66555C36.8583 9.86868 36.7541 10.1239 36.7541 10.4312C36.7541 10.7333 36.8583 10.9859 37.0666 11.189C37.2801 11.3921 37.5666 11.4937 37.926 11.4937C38.2853 11.4937 38.5692 11.3921 38.7775 11.189C38.9911 10.9859 39.0978 10.7333 39.0978 10.4312C39.0978 10.1239 38.9911 9.86868 38.7775 9.66555C38.5692 9.46243 38.2853 9.36086 37.926 9.36086C37.5666 9.36086 37.2801 9.46243 37.0666 9.66555ZM42.9885 15.063V21.0952H40.926V12.6421H42.8713L42.9364 13.6062C43.2115 13.2575 43.5465 12.9856 43.9416 12.7906C44.3583 12.5874 44.84 12.4859 45.3869 12.4859C45.7671 12.4859 46.1161 12.5432 46.4338 12.6577C46.7515 12.7671 47.0249 12.9416 47.2541 13.1812C47.4232 13.3503 47.5638 13.5573 47.676 13.8023C47.7184 13.7394 47.7626 13.6782 47.8088 13.6187C48.0848 13.2645 48.426 12.9885 48.8322 12.7906C49.2437 12.5874 49.7176 12.4859 50.2541 12.4859C50.6708 12.4859 51.0458 12.5458 51.3791 12.6656C51.7176 12.7801 52.0067 12.965 52.2463 13.2202C52.4859 13.4702 52.6682 13.7958 52.7932 14.1968C52.9234 14.5978 52.9885 15.0874 52.9885 15.6656V21.0952H50.9103V15.6577C50.9103 15.2463 50.8531 14.9312 50.7385 14.7124C50.6291 14.4937 50.4702 14.3426 50.2619 14.2593C50.0536 14.1708 49.8088 14.1265 49.5275 14.1265C49.2411 14.1265 48.9911 14.1812 48.7775 14.2906C48.5692 14.3947 48.3921 14.5406 48.2463 14.7281C48.1354 14.876 48.0455 15.0433 47.9767 15.2301C47.9793 15.3033 47.9807 15.3782 47.9807 15.4546V21.0952H45.9182V15.6656C45.9182 15.2697 45.8609 14.9598 45.7463 14.7359C45.6369 14.5119 45.4781 14.3557 45.2697 14.2671C45.0614 14.1734 44.8114 14.1265 44.5197 14.1265C44.1968 14.1265 43.9182 14.1916 43.6838 14.3218C43.4546 14.4468 43.2645 14.6213 43.1135 14.8452C43.0683 14.9146 43.0266 14.9872 42.9885 15.063ZM56.9103 20.939C57.4208 21.1473 57.9963 21.2515 58.6369 21.2515C59.189 21.2515 59.676 21.1786 60.0978 21.0327C60.5197 20.8817 60.8791 20.6864 61.176 20.4468C61.4781 20.2072 61.7176 19.9572 61.8947 19.6968L60.8557 18.6187C60.5952 18.952 60.2879 19.2046 59.9338 19.3765C59.5848 19.5432 59.1942 19.6265 58.7619 19.6265C58.4182 19.6265 58.1109 19.5666 57.84 19.4468C57.5744 19.3218 57.3452 19.1499 57.1525 18.9312C56.965 18.7072 56.8218 18.4442 56.7228 18.1421C56.6595 17.9379 56.6175 17.7217 56.597 17.4937H62.0666V16.6265C62.0666 16.0119 61.9885 15.452 61.8322 14.9468C61.676 14.4364 61.4442 13.9989 61.1369 13.6343C60.8296 13.2697 60.4468 12.9885 59.9885 12.7906C59.5301 12.5874 59.0015 12.4859 58.4025 12.4859C57.8244 12.4859 57.2958 12.59 56.8166 12.7984C56.3374 13.0067 55.926 13.3036 55.5822 13.689C55.2385 14.0744 54.9728 14.5353 54.7853 15.0718C54.5978 15.6031 54.5041 16.1942 54.5041 16.8452V17.1577C54.5041 17.7307 54.5978 18.2671 54.7853 18.7671C54.9781 19.2619 55.2515 19.6968 55.6057 20.0718C55.965 20.4416 56.3999 20.7307 56.9103 20.939ZM56.6321 16.0718C56.6481 15.956 56.6679 15.844 56.6916 15.7359C56.7645 15.4025 56.8739 15.1161 57.0197 14.8765C57.1708 14.6317 57.3583 14.4442 57.5822 14.314C57.8114 14.1786 58.0796 14.1109 58.3869 14.1109C58.7671 14.1109 59.077 14.1942 59.3166 14.3609C59.5562 14.5223 59.7333 14.7411 59.8478 15.0171C59.9624 15.2879 60.0249 15.5874 60.0353 15.9156V16.0718H56.6321ZM70.8244 21.0952V19.4077H65.7541V9.72024H63.6057V21.0952H65.1057H65.7541H70.8244ZM74.2932 21.0952V12.6421H72.2228V21.0952H74.2932ZM72.3947 9.66555C72.1864 9.86868 72.0822 10.1239 72.0822 10.4312C72.0822 10.7333 72.1864 10.9859 72.3947 11.189C72.6083 11.3921 72.8947 11.4937 73.2541 11.4937C73.6135 11.4937 73.8973 11.3921 74.1057 11.189C74.3192 10.9859 74.426 10.7333 74.426 10.4312C74.426 10.1239 74.3192 9.86868 74.1057 9.66555C73.8973 9.46243 73.6135 9.36086 73.2541 9.36086C72.8947 9.36086 72.6083 9.46243 72.3947 9.66555ZM78.2853 15.1035V21.0952H76.2228V12.6421H78.1603L78.231 13.6617C78.2463 13.642 78.2618 13.6224 78.2775 13.6031C78.5744 13.2437 78.926 12.9676 79.3322 12.7749C79.7385 12.5822 80.1916 12.4859 80.6916 12.4859C81.0978 12.4859 81.465 12.5432 81.7932 12.6577C82.1213 12.7723 82.4025 12.9546 82.6369 13.2046C82.8765 13.4546 83.0588 13.7827 83.1838 14.189C83.314 14.59 83.3791 15.0848 83.3791 15.6734V21.0952H81.301V15.6577C81.301 15.2723 81.2437 14.9676 81.1291 14.7437C81.0197 14.5197 80.8583 14.3609 80.6447 14.2671C80.4364 14.1734 80.1786 14.1265 79.8713 14.1265C79.5536 14.1265 79.2749 14.1916 79.0353 14.3218C78.801 14.4468 78.6031 14.6213 78.4416 14.8452C78.3847 14.9268 78.3326 15.0129 78.2853 15.1035ZM87.2697 20.939C87.7801 21.1473 88.3557 21.2515 88.9963 21.2515C89.5484 21.2515 90.0353 21.1786 90.4572 21.0327C90.8791 20.8817 91.2385 20.6864 91.5353 20.4468C91.8374 20.2072 92.077 19.9572 92.2541 19.6968L91.215 18.6187C90.9546 18.952 90.6473 19.2046 90.2932 19.3765C89.9442 19.5432 89.5536 19.6265 89.1213 19.6265C88.7775 19.6265 88.4702 19.5666 88.1994 19.4468C87.9338 19.3218 87.7046 19.1499 87.5119 18.9312C87.3244 18.7072 87.1812 18.4442 87.0822 18.1421C87.0188 17.9379 86.9769 17.7217 86.9564 17.4937H92.426V16.6265C92.426 16.0119 92.3478 15.452 92.1916 14.9468C92.0353 14.4364 91.8036 13.9989 91.4963 13.6343C91.189 13.2697 90.8062 12.9885 90.3478 12.7906C89.8895 12.5874 89.3609 12.4859 88.7619 12.4859C88.1838 12.4859 87.6551 12.59 87.176 12.7984C86.6968 13.0067 86.2853 13.3036 85.9416 13.689C85.5978 14.0744 85.3322 14.5353 85.1447 15.0718C84.9572 15.6031 84.8635 16.1942 84.8635 16.8452V17.1577C84.8635 17.7307 84.9572 18.2671 85.1447 18.7671C85.3374 19.2619 85.6109 19.6968 85.965 20.0718C86.3244 20.4416 86.7593 20.7307 87.2697 20.939ZM86.9915 16.0718C87.0075 15.956 87.0273 15.844 87.051 15.7359C87.1239 15.4025 87.2333 15.1161 87.3791 14.8765C87.5301 14.6317 87.7176 14.4442 87.9416 14.314C88.1708 14.1786 88.439 14.1109 88.7463 14.1109C89.1265 14.1109 89.4364 14.1942 89.676 14.3609C89.9156 14.5223 90.0926 14.7411 90.2072 15.0171C90.3218 15.2879 90.3843 15.5874 90.3947 15.9156V16.0718H86.9915ZM99.5744 9.72024H99.1603H98.6057H98.3088V21.0952H99.2619V16.1265L99.182 11.0847L103.41 21.0952H104.145L108.388 11.0502L108.301 16.1265V21.0952H109.262V9.72024H108.949H108.41H107.988L103.778 19.7359L99.5744 9.72024ZM113.676 20.9468C114.14 21.1499 114.647 21.2515 115.199 21.2515C115.705 21.2515 116.147 21.1838 116.528 21.0484C116.908 20.9129 117.233 20.7307 117.504 20.5015C117.78 20.2723 118.009 20.0223 118.192 19.7515L117.606 19.2984C117.298 19.6994 116.952 19.9937 116.567 20.1812C116.181 20.3635 115.738 20.4546 115.238 20.4546C114.811 20.4546 114.421 20.3687 114.067 20.1968C113.712 20.0249 113.405 19.7853 113.145 19.4781C112.89 19.1708 112.692 18.8166 112.551 18.4156C112.416 18.0093 112.348 17.5718 112.348 17.1031V16.9312H118.371V16.3609C118.371 15.7932 118.298 15.2749 118.153 14.8062C118.007 14.3322 117.791 13.9234 117.504 13.5796C117.223 13.2307 116.874 12.9624 116.457 12.7749C116.041 12.5822 115.564 12.4859 115.028 12.4859C114.548 12.4859 114.09 12.5874 113.653 12.7906C113.22 12.9885 112.835 13.2749 112.496 13.6499C112.158 14.0249 111.892 14.4754 111.699 15.0015C111.507 15.5275 111.41 16.1161 111.41 16.7671V17.1031C111.41 17.7072 111.501 18.2645 111.684 18.7749C111.871 19.2801 112.134 19.7176 112.473 20.0874C112.817 20.4572 113.218 20.7437 113.676 20.9468ZM112.382 16.1343C112.412 15.861 112.464 15.6032 112.535 15.3609C112.666 14.9338 112.848 14.5666 113.082 14.2593C113.322 13.9468 113.606 13.7072 113.934 13.5406C114.267 13.3739 114.632 13.2906 115.028 13.2906C115.559 13.2906 116.001 13.4208 116.356 13.6812C116.71 13.9416 116.975 14.2801 117.153 14.6968C117.335 15.1083 117.431 15.551 117.442 16.0249V16.1343H112.382ZM121.098 15.291V21.0952H120.16V12.6421H121.059L121.089 14.0102C121.19 13.8465 121.302 13.6925 121.426 13.5484C121.712 13.215 122.056 12.9546 122.457 12.7671C122.858 12.5796 123.314 12.4859 123.824 12.4859C124.236 12.4859 124.608 12.5432 124.942 12.6577C125.28 12.7671 125.567 12.9416 125.801 13.1812C126.041 13.4156 126.225 13.7228 126.356 14.1031C126.358 14.1103 126.361 14.1176 126.363 14.1249C126.505 13.8782 126.677 13.6522 126.879 13.4468C127.166 13.1499 127.507 12.9156 127.903 12.7437C128.304 12.5718 128.754 12.4859 129.254 12.4859C129.692 12.4859 130.082 12.5458 130.426 12.6656C130.77 12.7801 131.059 12.965 131.293 13.2202C131.533 13.4702 131.715 13.7906 131.84 14.1812C131.965 14.5718 132.028 15.0406 132.028 15.5874V21.0952H131.09V15.5796C131.09 14.9807 131.001 14.5171 130.824 14.189C130.653 13.8557 130.413 13.6239 130.106 13.4937C129.798 13.3635 129.439 13.2984 129.028 13.2984C128.621 13.3036 128.265 13.3791 127.957 13.5249C127.65 13.6656 127.392 13.8531 127.184 14.0874C126.981 14.3166 126.824 14.564 126.715 14.8296C126.626 15.0555 126.572 15.2777 126.551 15.4961V21.0952H125.621V15.5015C125.621 14.939 125.533 14.4989 125.356 14.1812C125.184 13.8635 124.942 13.6369 124.629 13.5015C124.322 13.3661 123.965 13.2984 123.559 13.2984C123.08 13.2984 122.673 13.3973 122.34 13.5952C122.012 13.7879 121.744 14.0406 121.535 14.3531C121.343 14.6446 121.197 14.9572 121.098 15.291ZM133.887 16.7437V17.0015C133.887 17.6161 133.975 18.1838 134.153 18.7046C134.33 19.2202 134.585 19.6682 134.918 20.0484C135.251 20.4286 135.65 20.7254 136.113 20.939C136.577 21.1473 137.095 21.2515 137.668 21.2515C138.236 21.2515 138.751 21.1473 139.215 20.939C139.679 20.7254 140.074 20.4286 140.403 20.0484C140.736 19.6682 140.991 19.2202 141.168 18.7046C141.345 18.1838 141.434 17.6161 141.434 17.0015V16.7437C141.434 16.1291 141.345 15.5614 141.168 15.0406C140.991 14.5197 140.736 14.0692 140.403 13.689C140.069 13.3088 139.671 13.0145 139.207 12.8062C138.744 12.5926 138.225 12.4859 137.653 12.4859C137.085 12.4859 136.569 12.5926 136.106 12.8062C135.642 13.0145 135.244 13.3088 134.91 13.689C134.582 14.0692 134.33 14.5197 134.153 15.0406C133.975 15.5614 133.887 16.1291 133.887 16.7437ZM134.817 17.0015V16.7437C134.817 16.2853 134.876 15.8504 134.996 15.439C135.121 15.0275 135.304 14.6603 135.543 14.3374C135.788 14.0145 136.085 13.7593 136.434 13.5718C136.788 13.3843 137.194 13.2906 137.653 13.2906C138.111 13.2906 138.517 13.3843 138.871 13.5718C139.225 13.7593 139.522 14.0145 139.762 14.3374C140.007 14.6603 140.189 15.0275 140.309 15.439C140.434 15.8504 140.496 16.2853 140.496 16.7437V17.0015C140.496 17.465 140.434 17.9051 140.309 18.3218C140.189 18.7333 140.009 19.1004 139.77 19.4234C139.53 19.7411 139.233 19.9911 138.879 20.1734C138.53 20.3557 138.126 20.4468 137.668 20.4468C137.205 20.4468 136.796 20.3557 136.442 20.1734C136.087 19.9911 135.791 19.7411 135.551 19.4234C135.311 19.1004 135.129 18.7333 135.004 18.3218C134.879 17.9051 134.817 17.465 134.817 17.0015ZM144.301 15.2548V21.0952H143.371V12.6421H144.278L144.3 13.965C144.36 13.8467 144.425 13.7338 144.496 13.6265C144.736 13.2671 145.035 12.9885 145.395 12.7906C145.759 12.5874 146.186 12.4859 146.676 12.4859C146.796 12.4859 146.913 12.4963 147.028 12.5171C147.147 12.5327 147.236 12.5536 147.293 12.5796L147.27 13.439C147.166 13.4234 147.064 13.4103 146.965 13.3999C146.866 13.3895 146.759 13.3843 146.645 13.3843C146.238 13.3843 145.882 13.4598 145.574 13.6109C145.272 13.7567 145.017 13.9624 144.809 14.2281C144.6 14.4885 144.442 14.7958 144.332 15.1499C144.321 15.1846 144.311 15.2196 144.301 15.2548ZM149.801 21.0952V12.6421H148.871V21.0952H149.801ZM148.871 9.75149C148.762 9.87128 148.707 10.0197 148.707 10.1968C148.707 10.3687 148.762 10.5171 148.871 10.6421C148.986 10.7619 149.142 10.8218 149.34 10.8218C149.538 10.8218 149.694 10.7619 149.809 10.6421C149.929 10.5171 149.988 10.3687 149.988 10.1968C149.988 10.0197 149.929 9.87128 149.809 9.75149C149.694 9.62649 149.538 9.56399 149.34 9.56399C149.142 9.56399 148.986 9.62649 148.871 9.75149ZM154.098 20.9468C154.561 21.1499 155.069 21.2515 155.621 21.2515C156.126 21.2515 156.569 21.1838 156.949 21.0484C157.33 20.9129 157.655 20.7307 157.926 20.5015C158.202 20.2723 158.431 20.0223 158.613 19.7515L158.028 19.2984C157.72 19.6994 157.374 19.9937 156.988 20.1812C156.603 20.3635 156.16 20.4546 155.66 20.4546C155.233 20.4546 154.843 20.3687 154.488 20.1968C154.134 20.0249 153.827 19.7853 153.567 19.4781C153.311 19.1708 153.113 18.8166 152.973 18.4156C152.837 18.0093 152.77 17.5718 152.77 17.1031V16.9312H158.793V16.3609C158.793 15.7932 158.72 15.2749 158.574 14.8062C158.429 14.3322 158.212 13.9234 157.926 13.5796C157.645 13.2307 157.296 12.9624 156.879 12.7749C156.462 12.5822 155.986 12.4859 155.449 12.4859C154.97 12.4859 154.512 12.5874 154.074 12.7906C153.642 12.9885 153.257 13.2749 152.918 13.6499C152.58 14.0249 152.314 14.4754 152.121 15.0015C151.929 15.5275 151.832 16.1161 151.832 16.7671V17.1031C151.832 17.7072 151.923 18.2645 152.106 18.7749C152.293 19.2801 152.556 19.7176 152.895 20.0874C153.238 20.4572 153.64 20.7437 154.098 20.9468ZM152.804 16.1343C152.834 15.861 152.885 15.6032 152.957 15.3609C153.087 14.9338 153.27 14.5666 153.504 14.2593C153.744 13.9468 154.028 13.7072 154.356 13.5406C154.689 13.3739 155.054 13.2906 155.449 13.2906C155.981 13.2906 156.423 13.4208 156.778 13.6812C157.132 13.9416 157.397 14.2801 157.574 14.6968C157.757 15.1083 157.853 15.551 157.863 16.0249V16.1343H152.804ZM165.528 18.2593C165.642 18.4833 165.699 18.7098 165.699 18.939C165.699 19.2046 165.616 19.452 165.449 19.6812C165.283 19.9103 165.038 20.0952 164.715 20.2359C164.392 20.3765 163.991 20.4468 163.512 20.4468C163.163 20.4468 162.809 20.3947 162.449 20.2906C162.095 20.1864 161.796 20.0093 161.551 19.7593C161.306 19.5041 161.168 19.1577 161.137 18.7202H160.207C160.207 19.1577 160.332 19.5718 160.582 19.9624C160.837 20.3478 161.21 20.6603 161.699 20.8999C162.194 21.1343 162.798 21.2515 163.512 21.2515C163.986 21.2515 164.413 21.1942 164.793 21.0796C165.179 20.965 165.507 20.8036 165.778 20.5952C166.054 20.3869 166.265 20.1395 166.41 19.8531C166.556 19.5614 166.629 19.2411 166.629 18.8921C166.629 18.4442 166.525 18.064 166.317 17.7515C166.108 17.4338 165.785 17.1682 165.348 16.9546C164.916 16.7359 164.358 16.551 163.676 16.3999C163.202 16.2906 162.817 16.1786 162.52 16.064C162.223 15.9494 161.994 15.827 161.832 15.6968C161.676 15.5666 161.567 15.426 161.504 15.2749C161.447 15.1187 161.418 14.9468 161.418 14.7593C161.418 14.5197 161.486 14.2879 161.621 14.064C161.762 13.84 161.983 13.6551 162.285 13.5093C162.587 13.3635 162.981 13.2906 163.465 13.2906C163.934 13.2906 164.33 13.3739 164.653 13.5406C164.981 13.7072 165.228 13.9208 165.395 14.1812C165.567 14.4416 165.653 14.7176 165.653 15.0093H166.582C166.582 14.5301 166.457 14.1004 166.207 13.7202C165.962 13.34 165.606 13.0406 165.137 12.8218C164.673 12.5978 164.116 12.4859 163.465 12.4859C163.007 12.4859 162.593 12.5458 162.223 12.6656C161.858 12.7853 161.546 12.952 161.285 13.1656C161.03 13.3739 160.832 13.6187 160.692 13.8999C160.556 14.176 160.488 14.4702 160.488 14.7827C160.488 15.1317 160.554 15.4338 160.684 15.689C160.814 15.9442 161.004 16.1629 161.254 16.3452C161.504 16.5275 161.811 16.6838 162.176 16.814C162.546 16.9442 162.965 17.0614 163.434 17.1656C164.064 17.2958 164.541 17.4546 164.863 17.6421C165.192 17.8296 165.413 18.0353 165.528 18.2593Z" fill="url(#paint0_linear_50_330)"/>
<defs>
<linearGradient id="paint0_linear_50_330" x1="7.46183" y1="17.9434" x2="101.292" y2="161.74" gradientUnits="userSpaceOnUse">
<stop offset="0.251308" stop-color="#996DFF"/>
<stop offset="0.623787" stop-color="#FF876E"/>
<stop offset="1" stop-color="#FFD072"/>
</linearGradient>
</defs>
</svg>
