<svg width="188" height="30" viewBox="0 0 188 30" fill="none" xmlns="http://www.w3.org/2000/svg">
<g clip-path="url(#clip0_314_371)">
<path opacity="0.9" fill-rule="evenodd" clip-rule="evenodd" d="M15.5054 0C6.94213 0 0.000244141 6.71572 0.000244141 15C0.000244141 23.2843 6.94213 30 15.5054 30H172.034C180.597 30 187.539 23.2843 187.539 15C187.539 6.71572 180.597 0 172.034 0H15.5054ZM30.9842 19.7767V10.7021H34.4063V9.11272H30.9842H28.9098H25.5256V10.7021H28.9098V19.7767H30.9842ZM37.7601 19.7767V11.852H35.7539V19.7767H37.7601ZM35.9205 9.06145C35.7186 9.25189 35.6176 9.49116 35.6176 9.77925C35.6176 10.0625 35.7186 10.2993 35.9205 10.4897C36.1274 10.6801 36.405 10.7753 36.7533 10.7753C37.1015 10.7753 37.3766 10.6801 37.5784 10.4897C37.7854 10.2993 37.8888 10.0625 37.8888 9.77925C37.8888 9.49116 37.7854 9.25189 37.5784 9.06145C37.3766 8.87103 37.1015 8.77581 36.7533 8.77581C36.405 8.77581 36.1274 8.87103 35.9205 9.06145ZM41.6592 14.1216V19.7767H39.6605V11.852H41.5456L41.6087 12.7558C41.8753 12.4289 42.1999 12.174 42.5828 11.9912C42.9866 11.8007 43.4534 11.7055 43.9834 11.7055C44.3519 11.7055 44.6901 11.7592 44.9979 11.8666C45.3058 11.9692 45.5708 12.1327 45.7929 12.3574C45.9567 12.5159 46.093 12.71 46.2017 12.9397C46.2428 12.8807 46.2856 12.8233 46.3304 12.7675C46.5979 12.4355 46.9285 12.1767 47.3222 11.9912C47.7209 11.8007 48.1802 11.7055 48.7001 11.7055C49.1039 11.7055 49.4673 11.7617 49.7903 11.874C50.1183 11.9813 50.3985 12.1547 50.6307 12.3939C50.8629 12.6283 51.0395 12.9336 51.1607 13.3095C51.2868 13.6854 51.3499 14.1444 51.3499 14.6865V19.7767H49.336V14.6791C49.336 14.2934 49.2806 13.998 49.1695 13.7929C49.0635 13.5878 48.9095 13.4462 48.7077 13.3681C48.5058 13.2851 48.2686 13.2436 47.996 13.2436C47.7184 13.2436 47.4762 13.2949 47.2692 13.3974C47.0673 13.495 46.8957 13.6318 46.7544 13.8076C46.6469 13.9462 46.5598 14.1031 46.4931 14.2782C46.4956 14.3468 46.497 14.4171 46.497 14.4887V19.7767H44.4983V14.6865C44.4983 14.3153 44.4428 14.0248 44.3317 13.8149C44.2257 13.6049 44.0718 13.4585 43.8699 13.3754C43.668 13.2876 43.4257 13.2436 43.143 13.2436C42.8301 13.2436 42.5602 13.3046 42.333 13.4267C42.1109 13.5439 41.9267 13.7075 41.7803 13.9174C41.7365 13.9824 41.6961 14.0505 41.6592 14.1216ZM55.1504 19.6303C55.6451 19.8256 56.2028 19.9233 56.8236 19.9233C57.3587 19.9233 57.8306 19.8549 58.2393 19.7182C58.6482 19.5766 58.9965 19.3935 59.2842 19.1689C59.577 18.9443 59.8091 18.7099 59.9807 18.4657L58.9738 17.455C58.7214 17.7675 58.4236 18.0043 58.0804 18.1655C57.7422 18.3217 57.3637 18.3998 56.9448 18.3998C56.6117 18.3998 56.3139 18.3437 56.0514 18.2314C55.794 18.1142 55.5719 17.953 55.3851 17.748C55.2034 17.538 55.0647 17.2914 54.9687 17.0082C54.9074 16.8168 54.8667 16.6141 54.8468 16.4003H60.1473V15.5873C60.1473 15.0112 60.0716 14.4862 59.9201 14.0126C59.7687 13.5341 59.5441 13.124 59.2463 12.7822C58.9485 12.4403 58.5776 12.1767 58.1334 11.9912C57.6892 11.8007 57.177 11.7055 56.5965 11.7055C56.0363 11.7055 55.524 11.8031 55.0596 11.9985C54.5952 12.1938 54.1966 12.4721 53.8634 12.8334C53.5303 13.1947 53.2729 13.6268 53.0912 14.1298C52.9095 14.6279 52.8186 15.1821 52.8186 15.7924V16.0853C52.8186 16.6225 52.9095 17.1254 53.0912 17.5942C53.278 18.058 53.5429 18.4657 53.8862 18.8173C54.2344 19.164 54.6558 19.435 55.1504 19.6303ZM54.8808 15.0673C54.8963 14.9587 54.9155 14.8538 54.9385 14.7524C55.0091 14.4398 55.1152 14.1713 55.2564 13.9467C55.4029 13.7172 55.5846 13.5414 55.8016 13.4194C56.0237 13.2924 56.2836 13.229 56.5814 13.229C56.9498 13.229 57.2501 13.3071 57.4823 13.4633C57.7145 13.6147 57.8861 13.8198 57.9971 14.0785C58.1081 14.3324 58.1687 14.6132 58.1788 14.9209V15.0673H54.8808ZM68.6342 19.7767V18.1947H63.7207V9.11272H61.6388V19.7767H63.0924H63.7207H68.6342ZM71.9957 19.7767V11.852H69.9893V19.7767H71.9957ZM70.1559 9.06145C69.9541 9.25189 69.8531 9.49116 69.8531 9.77925C69.8531 10.0625 69.9541 10.2993 70.1559 10.4897C70.3629 10.6801 70.6405 10.7753 70.9887 10.7753C71.337 10.7753 71.6121 10.6801 71.814 10.4897C72.0209 10.2993 72.1244 10.0625 72.1244 9.77925C72.1244 9.49116 72.0209 9.25189 71.814 9.06145C71.6121 8.87103 71.337 8.77581 70.9887 8.77581C70.6405 8.77581 70.3629 8.87103 70.1559 9.06145ZM75.8643 14.1595V19.7767H73.8656V11.852H75.7432L75.8117 12.8078C75.8266 12.7894 75.8416 12.771 75.8568 12.7529C76.1445 12.416 76.4852 12.1571 76.8789 11.9765C77.2726 11.7958 77.7117 11.7055 78.1962 11.7055C78.5899 11.7055 78.9457 11.7592 79.2638 11.8666C79.5817 11.974 79.8542 12.1449 80.0814 12.3793C80.3136 12.6137 80.4902 12.9213 80.6114 13.3022C80.7375 13.6781 80.8006 14.142 80.8006 14.6938V19.7767H78.7868V14.6791C78.7868 14.3178 78.7312 14.0321 78.6202 13.8222C78.5142 13.6122 78.3578 13.4633 78.1508 13.3754C77.9489 13.2876 77.6991 13.2436 77.4013 13.2436C77.0934 13.2436 76.8233 13.3046 76.5912 13.4267C76.3641 13.5439 76.1723 13.7075 76.0158 13.9174C75.9607 13.9939 75.9102 14.0746 75.8643 14.1595ZM84.5709 19.6303C85.0655 19.8256 85.6233 19.9233 86.2441 19.9233C86.7791 19.9233 87.2509 19.8549 87.6598 19.7182C88.0686 19.5766 88.4169 19.3935 88.7046 19.1689C88.9973 18.9443 89.2295 18.7099 89.4011 18.4657L88.3942 17.455C88.1418 17.7675 87.844 18.0043 87.5009 18.1655C87.1627 18.3217 86.7841 18.3998 86.3652 18.3998C86.0321 18.3998 85.7343 18.3437 85.4718 18.2314C85.2144 18.1142 84.9923 17.953 84.8056 17.748C84.6239 17.538 84.4851 17.2914 84.3892 17.0082C84.3277 16.8168 84.2871 16.6141 84.2673 16.4003H89.5677V15.5873C89.5677 15.0112 89.4919 14.4862 89.3406 14.0126C89.1891 13.5341 88.9646 13.124 88.6668 12.7822C88.369 12.4403 87.998 12.1767 87.5538 11.9912C87.1097 11.8007 86.5974 11.7055 86.0169 11.7055C85.4567 11.7055 84.9444 11.8031 84.4801 11.9985C84.0157 12.1938 83.6169 12.4721 83.2839 12.8334C82.9507 13.1947 82.6933 13.6268 82.5116 14.1298C82.3299 14.6279 82.2391 15.1821 82.2391 15.7924V16.0853C82.2391 16.6225 82.3299 17.1254 82.5116 17.5942C82.6983 18.058 82.9634 18.4657 83.3065 18.8173C83.6548 19.164 84.0763 19.435 84.5709 19.6303ZM84.3013 15.0673C84.3168 14.9587 84.336 14.8538 84.3589 14.7524C84.4296 14.4398 84.5356 14.1713 84.6769 13.9467C84.8232 13.7172 85.0049 13.5414 85.222 13.4194C85.4441 13.2924 85.704 13.229 86.0018 13.229C86.3703 13.229 86.6706 13.3071 86.9028 13.4633C87.1349 13.6147 87.3065 13.8198 87.4175 14.0785C87.5286 14.3324 87.5891 14.6132 87.5992 14.9209V15.0673H84.3013ZM96.495 9.11272H96.0937H95.5563H95.2686V19.7767H96.1922V15.1186L96.1148 10.3919L100.212 19.7767H100.924L105.036 10.3596L104.952 15.1186V19.7767H105.883V9.11272H105.58H105.057H104.648L100.569 18.5024L96.495 9.11272ZM110.16 19.6376C110.61 19.828 111.101 19.9233 111.636 19.9233C112.127 19.9233 112.555 19.8598 112.924 19.7329C113.293 19.6058 113.607 19.435 113.87 19.2202C114.138 19.0053 114.359 18.7709 114.537 18.517L113.969 18.0923C113.67 18.4682 113.335 18.7441 112.962 18.9199C112.588 19.0908 112.159 19.1762 111.674 19.1762C111.26 19.1762 110.882 19.0957 110.539 18.9345C110.195 18.7733 109.898 18.5487 109.646 18.2607C109.399 17.9726 109.207 17.6406 109.07 17.2646C108.939 16.8837 108.874 16.4736 108.874 16.0342V15.873H114.71V15.3383C114.71 14.8061 114.64 14.3202 114.499 13.8808C114.358 13.4364 114.148 13.0532 113.87 12.7309C113.598 12.4038 113.26 12.1523 112.855 11.9765C112.452 11.7958 111.99 11.7055 111.471 11.7055C111.006 11.7055 110.562 11.8007 110.138 11.9912C109.719 12.1767 109.346 12.4452 109.017 12.7968C108.689 13.1483 108.432 13.5707 108.245 14.0639C108.059 14.557 107.965 15.1088 107.965 15.7192V16.0342C107.965 16.6005 108.053 17.123 108.23 17.6015C108.411 18.0751 108.666 18.4853 108.995 18.8319C109.328 19.1786 109.717 19.4472 110.16 19.6376ZM108.907 15.1259C108.936 14.8697 108.986 14.628 109.055 14.4008C109.182 14.0004 109.358 13.6562 109.585 13.3681C109.817 13.0751 110.093 12.8505 110.411 12.6943C110.733 12.538 111.087 12.4599 111.471 12.4599C111.985 12.4599 112.414 12.582 112.758 12.8261C113.101 13.0702 113.357 13.3876 113.53 13.7782C113.706 14.164 113.799 14.5791 113.81 15.0233V15.1259H108.907ZM117.353 14.3353V19.7767H116.444V11.852H117.315L117.344 13.1346C117.442 12.9811 117.551 12.8367 117.671 12.7016C117.948 12.3891 118.281 12.1449 118.67 11.9692C119.059 11.7934 119.5 11.7055 119.995 11.7055C120.394 11.7055 120.754 11.7592 121.078 11.8666C121.406 11.9692 121.684 12.1327 121.91 12.3574C122.143 12.5771 122.321 12.8651 122.448 13.2217C122.45 13.2284 122.453 13.2352 122.455 13.2421C122.593 13.0108 122.759 12.7989 122.955 12.6064C123.233 12.328 123.564 12.1084 123.947 11.9472C124.336 11.7861 124.772 11.7055 125.257 11.7055C125.681 11.7055 126.059 11.7617 126.392 11.874C126.726 11.9813 127.006 12.1547 127.233 12.3939C127.465 12.6283 127.642 12.9287 127.763 13.2949C127.884 13.6611 127.945 14.1006 127.945 14.6132V19.7767H127.036V14.6059C127.036 14.0444 126.95 13.6098 126.778 13.3022C126.612 12.9897 126.38 12.7724 126.082 12.6503C125.784 12.5283 125.436 12.4672 125.038 12.4672C124.643 12.4721 124.298 12.5429 124 12.6796C123.702 12.8115 123.452 12.9873 123.251 13.2069C123.054 13.4218 122.902 13.6538 122.796 13.9028C122.71 14.1145 122.658 14.3228 122.637 14.5276V19.7767H121.736V14.5327C121.736 14.0053 121.651 13.5927 121.479 13.2949C121.313 12.997 121.078 12.7846 120.775 12.6577C120.477 12.5307 120.131 12.4672 119.738 12.4672C119.274 12.4672 118.879 12.56 118.557 12.7455C118.239 12.9262 117.979 13.1631 117.776 13.456C117.59 13.7293 117.449 14.0224 117.353 14.3353ZM129.746 15.6972V15.9389C129.746 16.5151 129.832 17.0473 130.004 17.5356C130.176 18.0189 130.423 18.4389 130.746 18.7954C131.068 19.1518 131.455 19.4301 131.904 19.6303C132.353 19.8256 132.855 19.9233 133.41 19.9233C133.961 19.9233 134.46 19.8256 134.91 19.6303C135.359 19.4301 135.742 19.1518 136.061 18.7954C136.384 18.4389 136.631 18.0189 136.802 17.5356C136.974 17.0473 137.06 16.5151 137.06 15.9389V15.6972C137.06 15.121 136.974 14.5888 136.802 14.1006C136.631 13.6122 136.384 13.1899 136.061 12.8334C135.737 12.477 135.352 12.2011 134.902 12.0058C134.453 11.8056 133.95 11.7055 133.396 11.7055C132.846 11.7055 132.345 11.8056 131.897 12.0058C131.447 12.2011 131.061 12.477 130.738 12.8334C130.42 13.1899 130.176 13.6122 130.004 14.1006C129.832 14.5888 129.746 15.121 129.746 15.6972ZM130.648 15.9389V15.6972C130.648 15.2675 130.705 14.8597 130.821 14.4741C130.942 14.0883 131.12 13.744 131.351 13.4413C131.589 13.1386 131.876 12.8993 132.215 12.7236C132.558 12.5478 132.951 12.4599 133.396 12.4599C133.84 12.4599 134.233 12.5478 134.576 12.7236C134.919 12.8993 135.207 13.1386 135.44 13.4413C135.677 13.744 135.854 14.0883 135.97 14.4741C136.091 14.8597 136.151 15.2675 136.151 15.6972V15.9389C136.151 16.3734 136.091 16.786 135.97 17.1767C135.854 17.5625 135.679 17.9066 135.447 18.2094C135.215 18.5073 134.927 18.7417 134.584 18.9126C134.246 19.0835 133.854 19.1689 133.41 19.1689C132.962 19.1689 132.565 19.0835 132.222 18.9126C131.878 18.7417 131.592 18.5073 131.359 18.2094C131.126 17.9066 130.95 17.5625 130.829 17.1767C130.708 16.786 130.648 16.3734 130.648 15.9389ZM139.838 14.3014V19.7767H138.937V11.852H139.816L139.837 13.0922C139.896 12.9813 139.958 12.8754 140.027 12.7748C140.26 12.4379 140.55 12.1767 140.898 11.9912C141.251 11.8007 141.665 11.7055 142.14 11.7055C142.256 11.7055 142.37 11.7153 142.481 11.7348C142.596 11.7494 142.683 11.769 142.738 11.7934L142.715 12.5991C142.615 12.5844 142.516 12.5722 142.42 12.5624C142.324 12.5527 142.22 12.5478 142.11 12.5478C141.715 12.5478 141.37 12.6186 141.072 12.7602C140.779 12.8969 140.532 13.0898 140.331 13.3388C140.128 13.583 139.975 13.8711 139.868 14.203C139.858 14.2356 139.848 14.2684 139.838 14.3014ZM145.168 19.7767V11.852H144.267V19.7767H145.168ZM144.267 9.14202C144.161 9.25432 144.108 9.39347 144.108 9.5595C144.108 9.72066 144.161 9.85978 144.267 9.97697C144.378 10.0893 144.53 10.1454 144.721 10.1454C144.913 10.1454 145.065 10.0893 145.176 9.97697C145.292 9.85978 145.349 9.72066 145.349 9.5595C145.349 9.39347 145.292 9.25432 145.176 9.14202C145.065 9.02483 144.913 8.96624 144.721 8.96624C144.53 8.96624 144.378 9.02483 144.267 9.14202ZM149.332 19.6376C149.781 19.828 150.273 19.9233 150.808 19.9233C151.298 19.9233 151.727 19.8598 152.095 19.7329C152.464 19.6058 152.779 19.435 153.042 19.2202C153.309 19.0053 153.531 18.7709 153.708 18.517L153.141 18.0923C152.842 18.4682 152.507 18.7441 152.133 18.9199C151.76 19.0908 151.331 19.1762 150.846 19.1762C150.432 19.1762 150.054 19.0957 149.71 18.9345C149.367 18.7733 149.07 18.5487 148.818 18.2607C148.57 17.9726 148.378 17.6406 148.242 17.2646C148.11 16.8837 148.045 16.4736 148.045 16.0342V15.873H153.882V15.3383C153.882 14.8061 153.811 14.3202 153.67 13.8808C153.529 13.4364 153.319 13.0532 153.042 12.7309C152.77 12.4038 152.431 12.1523 152.027 11.9765C151.623 11.7958 151.162 11.7055 150.642 11.7055C150.177 11.7055 149.734 11.8007 149.309 11.9912C148.89 12.1767 148.517 12.4452 148.189 12.7968C147.861 13.1483 147.604 13.5707 147.416 14.0639C147.23 14.557 147.136 15.1088 147.136 15.7192V16.0342C147.136 16.6005 147.225 17.123 147.402 17.6015C147.583 18.0751 147.838 18.4853 148.167 18.8319C148.499 19.1786 148.889 19.4472 149.332 19.6376ZM148.078 15.1259C148.107 14.8697 148.157 14.628 148.227 14.4008C148.353 14.0004 148.53 13.6562 148.757 13.3681C148.989 13.0751 149.264 12.8505 149.582 12.6943C149.905 12.538 150.259 12.4599 150.642 12.4599C151.157 12.4599 151.585 12.582 151.929 12.8261C152.272 13.0702 152.529 13.3876 152.701 13.7782C152.878 14.164 152.971 14.5791 152.981 15.0233V15.1259H148.078ZM160.409 17.1181C160.519 17.3281 160.575 17.5404 160.575 17.7553C160.575 18.0043 160.494 18.2362 160.332 18.4511C160.171 18.6659 159.934 18.8393 159.621 18.9712C159.308 19.103 158.919 19.1689 158.455 19.1689C158.117 19.1689 157.774 19.12 157.425 19.0224C157.082 18.9247 156.792 18.7587 156.555 18.5243C156.317 18.2851 156.184 17.9603 156.154 17.5502H155.252C155.252 17.9603 155.374 18.3486 155.616 18.7148C155.863 19.0761 156.224 19.369 156.698 19.5937C157.178 19.8134 157.763 19.9233 158.455 19.9233C158.915 19.9233 159.328 19.8696 159.697 19.7621C160.071 19.6547 160.388 19.5034 160.651 19.308C160.919 19.1127 161.123 18.8808 161.264 18.6123C161.405 18.3388 161.476 18.0385 161.476 17.7113C161.476 17.2914 161.375 16.935 161.173 16.642C160.971 16.3442 160.658 16.0952 160.234 15.8949C159.816 15.6899 159.275 15.5166 158.614 15.3749C158.155 15.2724 157.782 15.1674 157.494 15.06C157.206 14.9526 156.984 14.8378 156.827 14.7157C156.676 14.5937 156.57 14.4619 156.509 14.3202C156.454 14.1738 156.426 14.0126 156.426 13.8368C156.426 13.6122 156.492 13.3949 156.623 13.185C156.759 12.975 156.973 12.8017 157.266 12.665C157.559 12.5283 157.941 12.4599 158.41 12.4599C158.864 12.4599 159.248 12.538 159.561 12.6943C159.879 12.8505 160.118 13.0507 160.28 13.2949C160.447 13.539 160.53 13.7978 160.53 14.0712H161.43C161.43 13.622 161.309 13.2191 161.067 12.8627C160.829 12.5062 160.484 12.2256 160.03 12.0204C159.58 11.8104 159.04 11.7055 158.41 11.7055C157.966 11.7055 157.565 11.7617 157.206 11.874C156.852 11.9862 156.55 12.1425 156.297 12.3427C156.05 12.538 155.858 12.7675 155.722 13.0312C155.591 13.29 155.525 13.5658 155.525 13.8588C155.525 14.186 155.589 14.4692 155.715 14.7084C155.841 14.9477 156.025 15.1527 156.267 15.3236C156.509 15.4945 156.807 15.6411 157.16 15.7631C157.519 15.8852 157.925 15.9951 158.38 16.0928C158.99 16.2148 159.452 16.3637 159.764 16.5395C160.083 16.7153 160.297 16.9081 160.409 17.1181Z" fill="url(#paint0_linear_314_371)"/>
</g>
<defs>
<linearGradient id="paint0_linear_314_371" x1="7.2313" y1="16.8219" x2="93.9919" y2="154.262" gradientUnits="userSpaceOnUse">
<stop offset="0.251308" stop-color="#996DFF"/>
<stop offset="0.623787" stop-color="#FF876E"/>
<stop offset="1" stop-color="#FFD072"/>
</linearGradient>
<clipPath id="clip0_314_371">
<rect width="188" height="30" fill="white" transform="translate(0.000244141)"/>
</clipPath>
</defs>
</svg>
